/* XPM */
static char *_9f16ef6dc984ccbe6b1e033759ee58caO0w1kmddO3pJmp6[] = {
/* columns rows colors chars-per-pixel */
"50 50 240 2 ",
"   c #8C011A",
".  c #8A0016",
"X  c #980113",
"o  c #94021D",
"O  c #9A021B",
"+  c #A3021D",
"@  c #AB011D",
"#  c #A20016",
"$  c #B3001D",
"%  c #BB001F",
"&  c #890424",
"*  c #9D0223",
"=  c #960824",
"-  c #9C182B",
";  c #9D1A34",
":  c #991433",
">  c #8B1024",
",  c #A40223",
"<  c #AC0122",
"1  c #AC052B",
"2  c #AD0C2C",
"3  c #A40927",
"4  c #B30224",
"5  c #BC0124",
"6  c #B4032A",
"7  c #BC042A",
"8  c #B30B2C",
"9  c #BB0B2C",
"0  c #B60A26",
"q  c #A3132E",
"w  c #AA122E",
"e  c #AE192F",
"r  c #B9132D",
"t  c #B4132C",
"y  c #AD0C32",
"u  c #A60D32",
"i  c #B50D33",
"p  c #BB0C33",
"a  c #BA0A36",
"s  c #AD1433",
"d  c #A51A33",
"f  c #AC1C35",
"g  c #AA1D3B",
"h  c #A61735",
"j  c #B51334",
"k  c #BB1333",
"l  c #B21B36",
"z  c #BB1A35",
"x  c #B3153A",
"c  c #BD143A",
"v  c #B31C3B",
"b  c #BC1C3B",
"n  c #9F212F",
"m  c #AB233D",
"M  c #A62235",
"N  c #B4223B",
"B  c #BB223C",
"V  c #B32A3C",
"C  c #C2001F",
"Z  c #D1001F",
"A  c #C30224",
"S  c #CB0125",
"D  c #C4032B",
"F  c #CB032B",
"G  c #C40B2D",
"H  c #CB0A2E",
"J  c #C10925",
"K  c #D20025",
"L  c #D3022C",
"P  c #DB022D",
"I  c #D2092E",
"U  c #C7132E",
"Y  c #C40332",
"T  c #CC0333",
"R  c #C40C32",
"E  c #CD0B33",
"W  c #CB0F39",
"Q  c #CA0839",
"!  c #D40432",
"~  c #DC0233",
"^  c #D30B33",
"/  c #DB0A33",
"(  c #DE0639",
")  c #D40E39",
"_  c #DC0C3A",
"`  c #D30738",
"'  c #C41334",
"]  c #CC1334",
"[  c #C31A35",
"{  c #CB1935",
"}  c #C41439",
"|  c #CB133B",
" . c #C41B3B",
".. c #CC1B3C",
"X. c #D31336",
"o. c #DD1037",
"O. c #D4153B",
"+. c #DA143C",
"@. c #D41B3C",
"#. c #DB1B3D",
"$. c #D11837",
"%. c #E2002E",
"&. c #E20334",
"*. c #EA0133",
"=. c #E30A35",
"-. c #E30339",
";. c #ED0439",
":. c #E40C3B",
">. c #EB0C3B",
",. c #EC0937",
"<. c #E3113C",
"1. c #E6183D",
"2. c #F70B3C",
"3. c #CC233E",
"4. c #C8253F",
"5. c #D2223D",
"6. c #D6273B",
"7. c #D7363E",
"8. c #E0223E",
"9. c #BD1C41",
"0. c #AC2A41",
"q. c #AB2F4B",
"w. c #B42242",
"e. c #BC2543",
"r. c #B42B44",
"t. c #BC2B46",
"y. c #BB2C4B",
"u. c #AD3246",
"i. c #BB344C",
"p. c #B5324B",
"a. c #BD3A54",
"s. c #C41C40",
"d. c #CB1B41",
"f. c #C91640",
"g. c #DC1541",
"h. c #D41A41",
"j. c #DC1C43",
"k. c #D71844",
"l. c #E31442",
"z. c #EA1443",
"x. c #E41C44",
"c. c #EB1C42",
"v. c #E81D49",
"b. c #F21845",
"n. c #C32543",
"m. c #CC2343",
"M. c #C32A45",
"N. c #CC2C46",
"B. c #CA2649",
"V. c #C72C4A",
"C. c #D42344",
"Z. c #DC2444",
"A. c #D22A44",
"S. c #DA2A47",
"D. c #DD254A",
"F. c #D32D4B",
"G. c #DC2C4C",
"H. c #D12549",
"J. c #CC334C",
"K. c #CD3B4B",
"L. c #C6314A",
"P. c #D3324B",
"I. c #DB324C",
"U. c #D53B4D",
"Y. c #D83648",
"T. c #C43A53",
"R. c #CC3952",
"E. c #C93955",
"W. c #DC3353",
"Q. c #D23C52",
"!. c #DB3B54",
"~. c #D43C5C",
"^. c #D63856",
"/. c #D02F51",
"(. c #E32B4B",
"). c #EB2E4D",
"_. c #E62347",
"`. c #F2264E",
"'. c #E4344D",
"]. c #EB394F",
"[. c #E32F52",
"{. c #EC2D52",
"}. c #F62D53",
"|. c #E43553",
" X c #EB3251",
".X c #E43C53",
"XX c #E73858",
"oX c #F93B5F",
"OX c #BF4053",
"+X c #C6495B",
"@X c #C84458",
"#X c #D54254",
"$X c #DE4655",
"%X c #D6435A",
"&X c #DB445C",
"*X c #DB4B5D",
"=X c #D44C5B",
"-X c #D5505E",
";X c #E34354",
":X c #EB4A5B",
">X c #E7465A",
",X c #F34558",
"<X c #E5505B",
"1X c #CB4D63",
"2X c #C44B61",
"3X c #DB4C62",
"4X c #D74864",
"5X c #CD566A",
"6X c #D55B6C",
"7X c #DB5C6C",
"8X c #D75567",
"9X c #DC5D70",
"0X c #E44C62",
"qX c #EC4B63",
"wX c #E84768",
"eX c #F64A65",
"rX c #E35A6C",
"tX c #E85568",
"yX c #F55667",
"uX c #EC5972",
"iX c #F45E72",
"pX c #FD5D79",
"aX c #D7656F",
"sX c #DD6473",
"dX c #DB6775",
"fX c #F9626D",
"gX c #E96677",
"hX c #F2657A",
"jX c #FD6A7B",
"kX c #F66575",
"lX c #FA7A7E",
"zX c #EB6C82",
"xX c #FD6C83",
"cX c #F96884",
"vX c #EB7787",
"bX c #F97687",
"nX c #F97D93",
"mX c #F6828E",
"MX c #FF8797",
"NX c #FF8EA5",
/* pixels */
"& & & : : : * * . o = n 0.: & 1 * u w.0.g 2 < @ X o n V r.s , * * u l 9.k 1 @ @ + * > u.0.=   . = = ",
": : g q.a.p.w.9.w q d m p.g * y 9.y.E.2XT.V z j z w M u.r.l g y.y.T.E.E.V.b r r } f - u.p.h r.i.m d ",
"> : q.2X1X2Xa.p.M.e.g 0.a.9.u 9.@X8XzX9X8X=X#XN.(.b M p.y.x e.4XaXsXgX7X&XU.N.A.h.b ; 0.0.g T.6X1X2X",
"& : p.2X5X2XOXOXJ.t.f g p.g u a a.2X5X5XaX+X#XK. X[ f T.L.x g 4XaXaX6X-X#XK.K.Y.) x - 0.0.d T.6X5X5X",
"* : p.1X5X1X@X@X/.M.f m w.w.y a E.1X9XdX7X3X#X!.{.[ M L.L.x v 4XdXsX7X*X#XU.Y.U.k.s.f r.r.g E.9X6X1X",
"* : w.T.@XE.L.V.N.n.l w.V.9.y a ^.~.3X3X4X#XF.S. X[ N t.t.j 9.~.wX3X%XQ.P.A.A.5.j.d.f r.t.l ~.8XE.T.",
"* * = l B z t 8 k x g y.T.9.1 a a a 9.9.x i 5 7 h.k f t.n.c c d.p p p 8 0 4 4 $ | k q r.e.y B t., * ",
", O O , 2 0 $ $ , 1 y 9.y.y , 6 6 a 9.a p 9 Y F $ 2 f y.n.a 6 1 Y 7 Y Y Q E Y 9 7 y q y.t., * O < < ",
"= + + @ < < 8 a h w.w.d d N B l 5 6 0 7 T T a i 4.B B N l v b j 9 6 8 p Q T p s [ B r 2 2 t x i , , ",
"q - 3 t i y x x 9.g f s s 2 t b 4.z s 8 a R s.y.z 4.B j w t ' [ d.k 2 6 7 7 p B O e B b j 8 2 1 u w ",
"n - d N w.l 9.w.s.9./.4X&Xm.k [ B l N M.B.d.n.y.v ^.wXwXP.3.U G ] j j b | R b B V @X4X=XN.z 0 $ s q ",
"V f f V e.v v s./.&XuXxXxXtX!.I.[ z B /.W.H.B.E.5XzXnXnXfX;X(.6.| ' z N.C.C.N.R.gXvXbXhX>XU.Y.6.8 i ",
"N.b j b  .p a f.4XuXgXsX7XkXfXqX).5.z { ..W j.wXvXnXvXgX8X<X:X,X X@.j r '  .!.uXgXzXgXgXqXqX,X].R R ",
"G.{ 9 ' } 7 Y Q n.4X8X+X+XrXqXY.}.#.[ 5.X.D W {.6XaX6X=X#X$X;X'.`.$.k z ' ' A.:X6X3X#X!..X.XZ.U T T ",
"G.' 9 } } 7 7 T p F.3X*X=X>XI.{ _.U [ I._.A D D.K.#X*X&X;X].8.6.>.I [ 3.{ U 3.!.;X#XN.3.6.#.E % F D ",
"A.k 0 b s.p 7 Y x.[.wX0X<X;X)._.`.U r 3...5 E XX:X,X,X,X].}.}.1.b.^ G [ ' G 6.:X;XY.6.{ $.j.g.) R Y ",
"H.} p ' ' D A K E +.`.oX{.g.X.+.6.$.$.$.| | | j.j.g.g.v.l.` ` g.>.^ }  .R E j.D.X.I D A D F W ! T T ",
"< 6 r [ } J % C F F T ! F F ! _ I I $.Z.k.W T T l.l.~ ! ! ~ ( z.>.^ @.H.] ! ) ^ F F F T ! ( ! ! p p ",
"i k b B k 9 J ] C S F L ! ( ! F 1.#.#.#.O.) ^ _ F ! ~ &.-.:.~ ! b._ ..@.W L ! T K S C S S F ! ` a j ",
"s.n.B 4.B b z k O.^ F 5 S O.j.Z.C.A.S.G.A.@.O.$.l.l.-.P ~ l.x.g.^ } F.I.$.^ ^ J $.H F I ^ W Q | | | ",
"x s.J.~.3X%X4.t k ' [ ] h.D.m...B K.0XuXtX>XA.3.| ] ^ / _ h... .4.R.gXxX:XS.6.r 9 0 G @.h.} k j b b ",
"m./.^.tXhXxXkX*XV.m.d.D.(.[.P./.-XgXlXbXbXjXyX<XA...O.#._.Z.P.R.zXbXMXmXfXyXyX<XA.[ 9 R ' ..B.~.vXvX",
"[.XX!.4XuXjXxXjXpX|.E D F ] XXpXbXbXbXgXgXfXlXfXxXoX#./ ^ j.yXMXNXMXmXgXqXyXfXfXeX).I F ^ D.wXcXdXdX",
"f.H.F.Q.%X3X*X#XD.E L <.:.F E G.7XrXrX=X#X;X,X,X(.^ I >.=.F [ !.hX7X7X-X'.oX,X7._./ C K F F f.[..X.X",
"5 D ^ +.#.l._ _ %.P I ^ I I K K ) j.v.(.x.l.=.&.*./ ^ I P %./ o.c.1.1.=.:.:.-.-.;.^ G 7 D D F H Q Y ",
"5 D E +.+.l.g.( &.=.I H H I / =.l.x.v.`.v.z.>.;.2.>.^ L K %.>.1.1.<.=.-.-.-.-.-.*.! G D F L F T T Y ",
"5 J H ^ _ ( ( ~ &.L F A A K / %.>.z.z.z.z.;.;.;.2.,.I K K %.,.1.:.=.~ P P ~ -.-.;.K 5 7 D L L F Y F ",
"$ 5 D E ! ~ ~ ~ K K H H H H K P &.:.,.-.&.&.&.*.*.=.X.I %.%.,.,.=.P P P P ~ -.-.;.! D 5 S L K F T F ",
"$ $ D D F ! L ! I ^ ] U U H I L ~ ~ -.%.%.P &.&.,.o.$.] I %.&.=./ P P P ~ ( l.( >.^ R 7 D L L T D D ",
"5 5 5 D F T T T #.{ { ' U H I / ! ( / -.~ -.=.:.<.#. .[ U I P / / P L ! ( _ ( g.! R j z R T F D 7 5 ",
"5 5 7 G G W | | { 3.A.F.F.C.$./ E ^ _ _ =.+.g.j._.S.Q.#XG.6.X.I P I ^ ` ) +.g.) | N.K.Q.H...R 9 7 7 ",
"J J J R ' } s.d.[ P.:XiXpX:X(.+.G E _ o.+.+.k.C. X:XkXbXjXeX).@.L I H ) +.O.O.| |.wXhXhXtX[...k 0 0 ",
">Xd.9 G H U $.'.$X$X$X;X:XqXfXiX>XC.H P o.6.>XiXlXbXfX,X;XyXfXyXwXG.^ P P Z.0XbXmXzX0X!.I..X:XqX3.] ",
"B.' 4 D A J U 5.S.S.Z._.(.'.'..X'.$.F / / +.G.:X<X:X].8.1.).].].XXj.I P K O.W.wX3X!.S.$.+.#.Z.S.C.] ",
"} 5 5 J J A C U ^ ! ( ~ -.=.+._ <.L A S H S H +.#.1.<.P K ,.>._ l.( F S S F ^ k.] E L P P P I I E H ",
"9 5 4 A A C % C K L ~ &.&.~ P L %.K C A J S K P ^ -.&.P P *.=.~ *.~ S C A A F L K K K P P P L F F D ",
"D 7 4 5 C 5 C A D F L ~ ~ ~ ~ L ,.P S A J K %.%.( ( ~ ~ ~ -.-.( ;.~ F A J F ~ ~ L S K ! ! ` ! T F F ",
"D 5 4 $ % % C C 5 D F I L ! ! L P S A % A F P %.T ! ! ! ! ! ! ! -.~ S % J F ! ! F F F F T T Y Y D D ",
"9 5 6 4 $ 0 C C 5 J A S K K S F H H J A S S F F I K L L F L L ! ` T 5 $ % H T F S A A F T Q Y Y 5 6 ",
"7 9 0 1 0 9 J C J A C Z K Z K Z [ { H H I I I G %.P L L L K L L k.W H 5 A X.^ T C C A Y ` Q ` Q i p ",
"8 8 8 a } c y 3 R D D F F Q O.|  . .k 8 0 0 9 p ^ ! ~ P ~ _ +.O.r U R G 9 D E W +.` T F F F 7 a 1 1 ",
"a i a c f.f.9.i i 9 p R W | } } p ..G.[.G.h.R 9 7 D F W ^ E ' ' } m.I.|.G.d.p 6 7 7 7 Y R a 2 1 s x ",
"a i 7 Q f.k.d.s.j j t ' }  .b b H.Z.D.D.j.h.O.O.k k ' '  . .4.m.I.I.I.F.H...| f.j i 8 p k x l l t.t.",
"6 6 6 Y Q W | } } 9 6 < 6 p }  ._.h.] D 7 F O.x...' 9 0 9  .F.W.(.6.' 7 5 Y k.j.s.} 8 8 8 x e.e.2 2 ",
"< 4 4 5 D D G D U r % @ @ 5 G R D D E F F D F F ^ R 4 $ $ 7 | C.F S A S F F ! ! | Y 4 + , 1 8 k @ @ ",
"< @ 4 5 5 D 7 5 % % $ $ $ 5 5 5 5 A F G D D A A F F 5 % $ 5 5 5 S A A S F K F S D 7 4 < < < < @ 4 4 ",
"+ @ 4 5 5 5 5 5 % $ @ @ @ @ $ @ D D D 5 5 A F T D D 7 4 4 4 4 5 G A 5 % A D Y T D 5 4 < , < < < + + ",
"X + < 4 5 5 4 % t @ + O + + @ $ 4 5 7 A 5 A A A D 5 < @ + < 9 R @ $ $ 4 9 R 7 7 R 6 , O O * , 1 O o ",
"    * * < < , , + , + X O + < @ < 6 < 4 4 4 $ % 7 4 O X # 4 6 < @ @ @ 4 4 4 4 4 7 , o   o * * o o O ",
"    O , , < , < , , , O O , @ + 6 < 4 4 4 4 4 $ D 4 + X # 4 7 < @ @ @ $ 4 6 6 6 7 ,     o , * o o * "
};
